# xmcd
#
# Track frame offsets:
#	150
#	12010
#	23700
#	35095
#	45674
#	55422
#	68125
#	78498
#	96926
#	108417
#	118182
#	132037
#	143089
#	157882
#	166437
#	178370
#	190247
#	202112
#	217912
#	230312
#
# Disc length: 3219
#
# Revision: 2
# Processed by: cddbd v1.5.1PL0 Copyright (c) Steve Scherf et al.
# Submitted via: ExactAudioCopy v0.95a3
# Normalized: r0:TDELIM( - ),TSWAP
#
DISCID=170c9114
DTITLE=Various Artist - The very best of country
DYEAR=1999
DGENRE=Country
TTITLE0=Kenny Rogers - Ruby don't take your love to town
TTITLE1=Dolly Parton - Making believe
TTITLE2=Lynn Anderson - Listen to a country song
TTITLE3=Patsy Cline - Honky tonk merry go round
TTITLE4=Faron Young - Hello walls
TTITLE5=Slim Whitman - Tennessee Waltz
TTITLE6=Ferlin Husky - Wings of dove
TTITLE7=Kenny Rogers - Something's burning
TTITLE8=Frankie Laine - Mule train
TTITLE9=Mickey Gilley - Fraulin
TTITLE10=Willie Nelson - Home is where you're happy
TTITLE11=Slim Whitman - The wayward wind
TTITLE12=Tex Ritter - I dreamed of hillbilly heaven
TTITLE13=Ann Murray - Paths of victory
TTITLE14=Waylon Jennings - Don't think twice
TTITLE15=Lynn Anderson - Rodeo cowboy
TTITLE16=Kenny Rogers - Me and Bobby McGee
TTITLE17=Slim Whitman - Down in the valley
TTITLE18=Frankie Laine - Moonlight gambler
TTITLE19=Patsy Cline - Just out of reach
EXTD=
EXTT0=
EXTT1=
EXTT2=
EXTT3=
EXTT4=
EXTT5=
EXTT6=
EXTT7=
EXTT8=
EXTT9=
EXTT10=
EXTT11=
EXTT12=
EXTT13=
EXTT14=
EXTT15=
EXTT16=
EXTT17=
EXTT18=
EXTT19=
PLAYORDER=
